# xmcd
#
# Track frame offsets:
#	150
#	11217
#	20982
#	34625
#	46481
#	57800
#	70692
#	82537
#	95992
#	106810
#	118878
#	127776
#	136933
#	149068
#	158563
#	167686
#	180956
#	191831
#	202842
#	214641
#	227037
#	234804
#	249576
#	260947
#	272911
#	284374
#	297417
#	311931
#
# Disc length: 4374 seconds
#
# Revision: 0
# Processed by: cddbd v1.5.2PL0 Copyright (c) Steve Scherf et al.
# Submitted via: audiograbber 1.83.01
#
DISCID=9b11141c
DTITLE=Jerry Lee Lewis - A Whole Lotta Jerry Lee Lewis CD2
DYEAR=2012
DGENRE=Country
TTITLE0=Another Place, Another Time
TTITLE1=Walking The Floor Over You
TTITLE2=I'm A Lonesome Fugitive
TTITLE3=What's Made Milwaukee Famous (Has Made A Loser Out Of Me)
TTITLE4=She Still Comes Around (To Love What's Left Of Me)
TTITLE5=To Make Love Sweeter For You
TTITLE6=There Stands The Glass
TTITLE7=Don't Let Me Cross Over (with Linda Gail Lewis)
TTITLE8=Jackson (with Linda Gail Lewis)
TTITLE9=One Has My Name (The Other Has My Heart)
TTITLE10=Invitation To Your Party
TTITLE11=Earth Up Above (with Linda Gail Lewis)
TTITLE12=She Even Woke Me Up To Say Goodbye
TTITLE13=One Minute Past Eternity
TTITLE14=Roll Over Beethoven (with Linda Gail Lewis)
TTITLE15=Working Man's Blues
TTITLE16=Wine Me Up
TTITLE17=Once More With Feeling
TTITLE18=I Can't Seem To Say Goodbye
TTITLE19=There Must Be More To Love Than This
TTITLE20=Waiting For A Train
TTITLE21=In Loving Memories
TTITLE22=Sweet Georgia Brown
TTITLE23=Touching Home
TTITLE24=When He Walks On You (Like You Have Walked On Me)
TTITLE25=Would You Take Another Chance On Me
TTITLE26=Me And Bobby McGee
TTITLE27=Thirteen At The Table
EXTD=
EXTT0=
EXTT1=
EXTT2=
EXTT3=
EXTT4=
EXTT5=
EXTT6=
EXTT7=
EXTT8=
EXTT9=
EXTT10=
EXTT11=
EXTT12=
EXTT13=
EXTT14=
EXTT15=
EXTT16=
EXTT17=
EXTT18=
EXTT19=
EXTT20=
EXTT21=
EXTT22=
EXTT23=
EXTT24=
EXTT25=
EXTT26=
EXTT27=
PLAYORDER=
